<svg xmlns="http://www.w3.org/2000/svg" id="revenue_types" height="325" width="200"><rect class="rev_elem" x="62.27272727272727" y="113.2269084186424" height="60.773091581357605" width="28.636363636363637"/><rect class="rev_elem" x="103.18181818181819" y="151.14498835775356" height="22.85501164224644" width="28.636363636363637"/><rect class="rev_elem" x="144.0909090909091" y="168.9641976904328" height="5.035802309567202" width="28.636363636363637"/><rect class="neg_labor_elem" x="62.27272727272727" y="174" height="10.83786799867545" width="28.636363636363637"/><rect class="neg_labor_elem" x="103.18181818181819" y="174" height="10.170480180799672" width="28.636363636363637"/><rect class="neg_labor_elem" x="144.0909090909091" y="174" height="2.56266384197977" width="28.636363636363637"/><circle class="point-marker" r="1.7897727272727273" cx="76.5909090909091" cy="124.06477641731783" fill="red"/><circle class="point-marker" r="1.7897727272727273" cx="117.5" cy="161.3154685385532" fill="red"/><circle class="point-marker" r="1.7897727272727273" cx="158.4090909090909" cy="171.52686153241257" fill="red"/><line class="xaxis" y1="174" y2="174" x1="50" x2="185" stroke="gray"/><line class="xtick" y1="240" y2="247" x1="76.5909090909091" x2="76.5909090909091" stroke="gray"/><line class="xtick" y1="240" y2="247" x1="117.5" x2="117.5" stroke="gray"/><line class="xtick" y1="240" y2="247" x1="158.4090909090909" x2="158.4090909090909" stroke="gray"/><text class="xtick_label" x="76.5909090909091" y="240" fill="gray" font-size="10px" transform="rotate(320 104.5909090909091,240)" text-anchor="end">Self Publish</text><text class="xtick_label" x="117.5" y="240" fill="gray" font-size="10px" transform="rotate(320 145.5,240)" text-anchor="end">POD Service</text><text class="xtick_label" x="158.4090909090909" y="240" fill="gray" font-size="10px" transform="rotate(320 186.4090909090909,240)" text-anchor="end">POD Retail</text><line class="yaxis" x1="50" x2="50" y1="20" y2="240" stroke="gray"/><line class="ytick" y1="240" y2="240" x1="43" x2="50" stroke="gray"/><line class="ytick" y1="218" y2="218" x1="43" x2="50" stroke="gray"/><line class="ytick" y1="196" y2="196" x1="43" x2="50" stroke="gray"/><line class="ytick" y1="174" y2="174" x1="43" x2="50" stroke="gray"/><line class="ytick" y1="152" y2="152" x1="43" x2="50" stroke="gray"/><line class="ytick" y1="130" y2="130" x1="43" x2="50" stroke="gray"/><line class="ytick" y1="108" y2="108" x1="43" x2="50" stroke="gray"/><line class="ytick" y1="86" y2="86" x1="43" x2="50" stroke="gray"/><line class="ytick" y1="64.00000000000003" y2="64.00000000000003" x1="43" x2="50" stroke="gray"/><line class="ytick" y1="42.00000000000003" y2="42.00000000000003" x1="43" x2="50" stroke="gray"/><line class="ytick" y1="20" y2="20" x1="43" x2="50" stroke="gray"/><text class="ytick_label" y="242.85714285714286" x="39.5" fill="gray" font-size="10px" text-anchor="end">-300000</text><text class="ytick_label" y="220.85714285714286" x="39.5" fill="gray" font-size="10px" text-anchor="end">-200000</text><text class="ytick_label" y="198.85714285714286" x="39.5" fill="gray" font-size="10px" text-anchor="end">-100000</text><text class="ytick_label" y="176.85714285714286" x="39.5" fill="gray" font-size="10px" text-anchor="end">0</text><text class="ytick_label" y="154.85714285714286" x="39.5" fill="gray" font-size="10px" text-anchor="end">100000</text><text class="ytick_label" y="132.85714285714286" x="39.5" fill="gray" font-size="10px" text-anchor="end">200000</text><text class="ytick_label" y="110.85714285714286" x="39.5" fill="gray" font-size="10px" text-anchor="end">300000</text><text class="ytick_label" y="88.85714285714286" x="39.5" fill="gray" font-size="10px" text-anchor="end">400000</text><text class="ytick_label" y="66.85714285714289" x="39.5" fill="gray" font-size="10px" text-anchor="end">500000</text><text class="ytick_label" y="44.85714285714288" x="39.5" fill="gray" font-size="10px" text-anchor="end">600000</text><text class="ytick_label" y="22.857142857142858" x="39.5" fill="gray" font-size="10px" text-anchor="end">700000</text></svg>