<svg xmlns="http://www.w3.org/2000/svg" width="1060" height="1000"><g transform="translate(1,1)"><g><path d="M100,160.926076259622C289.5,160.926076259622 289.5,227.6657055350098 479,227.6657055350098" style="stroke-width: 85.5491;"><title>General Fund → Police
198,689,431 TWh</title></path><path d="M100,819.3519501933129C289.5,819.3519501933129 289.5,906.107320567588 479,906.107320567588" style="stroke-width: 83.2199;"><title>Bus Transportation Fund → Transportation Services
193,279,747 TWh</title></path><path d="M579,219.83586986088088C768.5,219.83586986088088 768.5,34.94472026591033 958,34.94472026591033" style="stroke-width: 69.8894;"><title>Police → Regular Pay
162,319,548 TWh</title></path><path d="M579,747.9685324934463C768.5,747.9685324934463 768.5,472.8275479408323 958,472.8275479408323" style="stroke-width: 61.0858;"><title>Environmental Services → Other Services - Not Classified
141,872,981 TWh</title></path><path d="M100,521.094467086371C289.5,521.094467086371 289.5,697.1358350966002 479,697.1358350966002" style="stroke-width: 48.6816;"><title>Sewer Fund → Environmental Services
113,064,052 TWh</title></path><path d="M100,617.3261407720383C289.5,617.3261407720383 289.5,771.1249914217706 479,771.1249914217706" style="stroke-width: 45.9195;"><title>Sld Wst Dis Fac Acct - SWSF → Environmental Services
106,648,975 TWh</title></path><path d="M579,899.9406980390606C768.5,899.9406980390606 768.5,755.0495484440899 958,755.0495484440899" style="stroke-width: 45.1153;"><title>Transportation Services → OTS Payroll
104,781,070 TWh</title></path><path d="M100,224.28845242000935C289.5,224.28845242000935 289.5,311.84705060663134 479,311.84705060663134" style="stroke-width: 41.1756;"><title>General Fund → Fire
95,631,204 TWh</title></path><path d="M579,306.43359115648684C768.5,306.43359115648684 768.5,85.06380130202427 958,85.06380130202427" style="stroke-width: 30.3487;"><title>Fire → Regular Pay
70,485,480 TWh</title></path><path d="M100,571.0220927212339C289.5,571.0220927212339 289.5,734.8209433709661 479,734.8209433709661" style="stroke-width: 26.6886;"><title>Refuse Genl Operating Acct -SWSF → Environmental Services
61,984,702 TWh</title></path><path d="M100,263.4936230148011C289.5,263.4936230148011 289.5,411.05222120142315 479,411.05222120142315" style="stroke-width: 26.3801;"><title>General Fund → Parks and Recreation
61,268,279 TWh</title></path><path d="M579,676.657182555244C768.5,676.657182555244 768.5,199.36994607494879 958,199.36994607494879" style="stroke-width: 22.4269;"><title>Environmental Services → Regular Pay
52,086,816 TWh</title></path><path d="M100,694.540960305067C289.5,694.540960305067 289.5,818.8589752936539 479,818.8589752936539" style="stroke-width: 20.5006;"><title>Housing &amp; Comm Dev Sec 8 Fund → Community Services
47,612,928 TWh</title></path><path d="M579,824.8731928205132C768.5,824.8731928205132 768.5,660.9273891481198 958,660.9273891481198" style="stroke-width: 19.149;"><title>Community Services → DHCD-Rental Subsidy
44,474,000 TWh</title></path><path d="M579,405.6152633420683C768.5,405.6152633420683 768.5,112.44342151963437 958,112.44342151963437" style="stroke-width: 15.5062;"><title>Parks and Recreation → Regular Pay
36,013,404 TWh</title></path><path d="M100,405.3694760689263C289.5,405.3694760689263 289.5,623.1655893100699 479,623.1655893100699" style="stroke-width: 15.3238;"><title>Highway Fund → Facility Maintenance
35,589,796 TWh</title></path><path d="M100,293.1613668952083C289.5,293.1613668952083 289.5,476.83501149662766 479,476.83501149662766" style="stroke-width: 13.9742;"><title>General Fund → Emergency Services
32,455,460 TWh</title></path><path d="M579,610.3125103824782C768.5,610.3125103824782 768.5,176.46478326945498 958,176.46478326945498" style="stroke-width: 13.589;"><title>Facility Maintenance → Regular Pay
31,560,732 TWh</title></path><path d="M100,340.4137429756196C289.5,340.4137429756196 289.5,609.5108495291188 479,609.5108495291188" style="stroke-width: 11.9857;"><title>General Fund → Facility Maintenance
27,836,987 TWh</title></path><path d="M100,761.8843612267883C289.5,761.8843612267883 289.5,858.6397316010634 479,858.6397316010634" style="stroke-width: 11.7153;"><title>Federal Grants Fund → Transportation Services
27,209,000 TWh</title></path><path d="M579,707.8417291486172C768.5,707.8417291486172 768.5,404.5961324736475 958,404.5961324736475" style="stroke-width: 11.1377;"><title>Environmental Services → Electricity
25,867,539 TWh</title></path><path d="M100,389.10745139322523C289.5,389.10745139322523 289.5,275.849745930666 479,275.849745930666" style="stroke-width: 10.819;"><title>Highway Fund → Police
25,127,260 TWh</title></path><path d="M579,867.1617407535635C768.5,867.1617407535635 768.5,702.082584078828 958,702.082584078828" style="stroke-width: 10.6688;"><title>Transportation Services → Diesel
24,778,427 TWh</title></path><path d="M579,697.623395817787C768.5,697.623395817787 768.5,358.31217252614414 958,358.31217252614414" style="stroke-width: 9.29896;"><title>Environmental Services → OTHER
21,597,006 TWh</title></path><path d="M579,623.510692418948C768.5,623.510692418948 768.5,347.1041671718033 958,347.1041671718033" style="stroke-width: 8.96184;"><title>Facility Maintenance → OTHER
20,814,047 TWh</title></path><path d="M100,751.5676713237237C289.5,751.5676713237237 289.5,835.0871800080637 479,835.0871800080637" style="stroke-width: 8.91808;"><title>Federal Grants Fund → Community Services
20,712,415 TWh</title></path><path d="M579,474.2024327282847C768.5,474.2024327282847 768.5,139.5721262356404 958,139.5721262356404" style="stroke-width: 8.70909;"><title>Emergency Services → Regular Pay
20,227,032 TWh</title></path><path d="M100,329.8201903119384C289.5,329.8201903119384 289.5,577.6412883156489 479,577.6412883156489" style="stroke-width: 8.33732;"><title>General Fund → Customer Services
19,363,582 TWh</title></path><path d="M579,275.7080777629487C768.5,275.7080777629487 768.5,317.8026144954287 958,317.8026144954287" style="stroke-width: 8.17125;"><title>Police → OTHER
18,977,888 TWh</title></path><path d="M579,856.4404345558459C768.5,856.4404345558459 768.5,372.25327100757374 958,372.25327100757374" style="stroke-width: 8.13805;"><title>Transportation Services → OTHER
18,900,766 TWh</title></path><path d="M579,457.361752181985C768.5,457.361752181985 768.5,131.33555867591272 958,131.33555867591272" style="stroke-width: 7.76404;"><title>Design and Construction → Regular Pay
18,032,136 TWh</title></path><path d="M579,544.3894096229828C768.5,544.3894096229828 768.5,157.897702668469 958,157.897702668469" style="stroke-width: 7.75953;"><title>Budget and Fiscal Services → Regular Pay
18,021,660 TWh</title></path><path d="M100,311.56104218615934C289.5,311.56104218615934 289.5,526.5275257707602 479,526.5275257707602" style="stroke-width: 7.65053;"><title>General Fund → Information Technology
17,768,496 TWh</title></path><path d="M579,631.7766177588811C768.5,631.7766177588811 768.5,394.0836648329182 958,394.0836648329182" style="stroke-width: 7.57001;"><title>Facility Maintenance → Electricity
17,581,489 TWh</title></path><path d="M579,926.2445862238275C768.5,926.2445862238275 768.5,791.3534366288567 958,791.3534366288567" style="stroke-width: 7.49251;"><title>Transportation Services → Health, Welfare &amp; Medical Plans-Bargaining Unit Em
17,401,486 TWh</title></path><path d="M579,785.8506311974274C768.5,785.8506311974274 768.5,552.8810644768974 958,552.8810644768974" style="stroke-width: 7.48278;"><title>Environmental Services → Solid Waste Disposal (including management svcs)
17,378,901 TWh</title></path><path d="M579,439.79292471518147C768.5,439.79292471518147 768.5,123.82502524442872 958,123.82502524442872" style="stroke-width: 7.25702;"><title>Planning and Permitting → Regular Pay
16,854,576 TWh</title></path><path d="M579,268.0463451326752C768.5,268.0463451326752 768.5,289.100437901386 958,289.100437901386" style="stroke-width: 7.15221;"><title>Police → Non-Holiday Overtime Pay
16,611,150 TWh</title></path><path d="M100,304.16399932632936C289.5,304.16399932632936 289.5,508.47090895169396 479,508.47090895169396" style="stroke-width: 7.14356;"><title>General Fund → Prosecuting Attorney
16,591,048 TWh</title></path><path d="M100,318.91963024624596C289.5,318.91963024624596 289.5,544.0429676660237 479,544.0429676660237" style="stroke-width: 7.06665;"><title>General Fund → Budget and Fiscal Services
16,412,424 TWh</title></path><path d="M579,933.2655468945421C768.5,933.2655468945421 768.5,808.3743972995713 958,808.3743972995713" style="stroke-width: 6.54942;"><title>Transportation Services → Retirement Plans-Bargaining Unit Employees
15,211,142 TWh</title></path><path d="M579,507.9741948066925C768.5,507.9741948066925 768.5,147.27926689211128 958,147.27926689211128" style="stroke-width: 6.15013;"><title>Prosecuting Attorney → Regular Pay
14,283,792 TWh</title></path><path d="M100,279.63008079096613C289.5,279.63008079096613 289.5,439.1108209071973 479,439.1108209071973" style="stroke-width: 5.89282;"><title>General Fund → Planning and Permitting
13,686,178 TWh</title></path><path d="M579,418.8882779228256C768.5,418.8882779228256 768.5,330.47377994269766 958,330.47377994269766" style="stroke-width: 5.86733;"><title>Parks and Recreation → OTHER
13,626,991 TWh</title></path><path d="M579,811.9970107442156C768.5,811.9970107442156 768.5,365.5729497576668 958,365.5729497576668" style="stroke-width: 5.2226;"><title>Community Services → OTHER
12,129,579 TWh</title></path><path d="M579,576.074662111919C768.5,576.074662111919 768.5,166.74294298747256 958,166.74294298747256" style="stroke-width: 5.20407;"><title>Customer Services → Regular Pay
12,086,544 TWh</title></path><path d="M579,836.9969661718089C768.5,836.9969661718089 768.5,683.0511624994156 958,683.0511624994156" style="stroke-width: 5.09851;"><title>Community Services → Sub Recipient Grants
11,841,386 TWh</title></path><path d="M100,481.7957214915412C289.5,481.7957214915412 289.5,670.3193956515041 479,670.3193956515041" style="stroke-width: 4.95123;"><title>Recycling Account - SWSF → Environmental Services
11,499,324 TWh</title></path><path d="M579,328.9923772359218C768.5,328.9923772359218 768.5,324.35507758351866 958,324.35507758351866" style="stroke-width: 4.93367;"><title>Fire → OTHER
11,458,551 TWh</title></path><path d="M100,440.40948917151616C289.5,440.40948917151616 289.5,648.7501882882223 479,648.7501882882223" style="stroke-width: 4.92741;"><title>Special Events Fund → Enterprise Services
11,444,014 TWh</title></path><path d="M579,648.7319938185792C768.5,648.7319938185792 768.5,185.70790107902278 958,185.70790107902278" style="stroke-width: 4.89723;"><title>Enterprise Services → Regular Pay
11,373,900 TWh</title></path><path d="M579,874.9395949351335C768.5,874.9395949351335 768.5,720.0484453401629 958,720.0484453401629" style="stroke-width: 4.88694;"><title>Transportation Services → Public Liability Insurance
11,350,000 TWh</title></path><path d="M579,791.9490704278205C768.5,791.9490704278205 768.5,578.9958221965223 958,578.9958221965223" style="stroke-width: 4.7141;"><title>Environmental Services → Recycling Services
10,948,580 TWh</title></path><path d="M579,807.1497875852876C768.5,807.1497875852876 768.5,212.7894199576959 958,212.7894199576959" style="stroke-width: 4.41208;"><title>Community Services → Regular Pay
10,247,148 TWh</title></path><path d="M579,690.7711381860396C768.5,690.7711381860396 768.5,301.4114118804588 958,301.4114118804588" style="stroke-width: 4.40556;"><title>Environmental Services → Non-Holiday Overtime Pay
10,231,990 TWh</title></path><path d="M100,454.98812399111534C289.5,454.98812399111534 289.5,653.3288231078214 479,653.3288231078214" style="stroke-width: 4.22986;"><title>Golf Fund → Enterprise Services
9,823,918 TWh</title></path><path d="M579,942.4156934486058C768.5,942.4156934486058 768.5,837.524543853635 958,837.524543853635" style="stroke-width: 4.04828;"><title>Transportation Services → Services-OTS Operations
9,402,197 TWh</title></path><path d="M579,715.4181020867808C768.5,715.4181020867808 768.5,423.73791397207003 958,423.73791397207003" style="stroke-width: 4.01504;"><title>Environmental Services → Consultant Services
9,325,000 TWh</title></path><path d="M579,528.4624587694684C768.5,528.4624587694684 768.5,337.12252792990995 958,337.12252792990995" style="stroke-width: 3.99221;"><title>Information Technology → OTHER
9,271,991 TWh</title></path><path d="M579,256.72303910301986C768.5,256.72303910301986 768.5,229.6443550703215 958,229.6443550703215" style="stroke-width: 3.8849;"><title>Police → Auto Allowance HPD/HFD/CCL
9,022,749 TWh</title></path><path d="M579,938.4659051744162C768.5,938.4659051744162 768.5,823.5747555794454 958,823.5747555794454" style="stroke-width: 3.8513;"><title>Transportation Services → Bus Parts
8,944,719 TWh</title></path><path d="M579,524.534064293002C768.5,524.534064293002 768.5,152.18613412918157 958,152.18613412918157" style="stroke-width: 3.6636;"><title>Information Technology → Regular Pay
8,508,792 TWh</title></path><path d="M579,780.3103424253081C768.5,780.3103424253081 768.5,536.8615313851617 958,536.8615313851617" style="stroke-width: 3.5978;"><title>Environmental Services → Chemical Supplies
8,355,950 TWh</title></path><path d="M100,284.37536549080176C289.5,284.37536549080176 289.5,455.27860725832085 479,455.27860725832085" style="stroke-width: 3.59775;"><title>General Fund → Design and Construction
8,355,849 TWh</title></path><path d="M579,946.1654904564862C768.5,946.1654904564862 768.5,851.2743408615154 958,851.2743408615154" style="stroke-width: 3.45132;"><title>Transportation Services → OTS Payroll Taxes
8,015,752 TWh</title></path><path d="M100,414.6493027290598C289.5,414.6493027290598 289.5,851.1641520290605 479,851.1641520290605" style="stroke-width: 3.23586;"><title>Highway Fund → Transportation Services
7,515,350 TWh</title></path><path d="M100,324.0522424687725C289.5,324.0522424687725 289.5,561.6429488079822 479,561.6429488079822" style="stroke-width: 3.19858;"><title>General Fund → Corporation Counsel
7,428,754 TWh</title></path><path d="M579,423.2809663563134C768.5,423.2809663563134 768.5,388.4596421896741 958,388.4596421896741" style="stroke-width: 2.91804;"><title>Parks and Recreation → Electricity
6,777,213 TWh</title></path><path d="M579,482.56284578068966C768.5,482.56284578068966 768.5,332.33878692334645 958,332.33878692334645" style="stroke-width: 2.80002;"><title>Emergency Services → OTHER
6,503,101 TWh</title></path><path d="M579,260.04915775410274C768.5,260.04915775410274 768.5,243.05984220755107 958,243.05984220755107" style="stroke-width: 2.76734;"><title>Police → Unleaded Gas
6,427,198 TWh</title></path><path d="M579,850.899443313669C768.5,850.899443313669 768.5,216.3486839645165 958,216.3486839645165" style="stroke-width: 2.70644;"><title>Transportation Services → Regular Pay
6,285,768 TWh</title></path><path d="M579,325.2356158068456C768.5,325.2356158068456 768.5,293.96646887264586 958,293.96646887264586" style="stroke-width: 2.57985;"><title>Fire → Non-Holiday Overtime Pay
5,991,748 TWh</title></path><path d="M100,246.98645243527187C289.5,246.98645243527187 289.5,354.5450506218939 479,354.5450506218939" style="stroke-width: 2.51842;"><title>General Fund → Human Resources
5,849,069 TWh</title></path><path d="M100,347.6066021382789C289.5,347.6066021382789 289.5,666.6437657466155 479,666.6437657466155" style="stroke-width: 2.40003;"><title>General Fund → Environmental Services
5,574,116 TWh</title></path><path d="M579,561.2253810580231C768.5,561.2253810580231 768.5,162.95918909799553 958,162.95918909799553" style="stroke-width: 2.36344;"><title>Corporation Counsel → Regular Pay
5,489,136 TWh</title></path><path d="M579,262.60445555892295C768.5,262.60445555892295 768.5,256.3875487897233 958,256.3875487897233" style="stroke-width: 2.34326;"><title>Police → Holiday Overtime Pay
5,442,257 TWh</title></path><path d="M100,396.6075493876573C289.5,396.6075493876573 289.5,458.17751453510243 479,458.17751453510243" style="stroke-width: 2.20006;"><title>Highway Fund → Design and Construction
5,109,685 TWh</title></path><path d="M579,354.3794328107521C768.5,354.3794328107521 768.5,102.12258848562968 958,102.12258848562968" style="stroke-width: 2.18718;"><title>Human Resources → Regular Pay
5,079,768 TWh</title></path><path d="M100,556.5868271138809C289.5,556.5868271138809 289.5,635.1799945534358 479,635.1799945534358" style="stroke-width: 2.18196;"><title>Refuse Genl Operating Acct -SWSF → Facility Maintenance
5,067,653 TWh</title></path><path d="M579,322.839860297539C768.5,322.839860297539 768.5,258.6361616872139 958,258.6361616872139" style="stroke-width: 2.15397;"><title>Fire → Holiday Overtime Pay
5,002,635 TWh</title></path><path d="M579,414.57077100817736C768.5,414.57077100817736 768.5,272.8489189708387 958,272.8489189708387" style="stroke-width: 2.13346;"><title>Parks and Recreation → Personal Svcs-Contract Positions
4,954,992 TWh</title></path><path d="M100,478.25463580810117C289.5,478.25463580810117 289.5,632.0453957629726 479,632.0453957629726" style="stroke-width: 2.13094;"><title>Recycling Account - SWSF → Facility Maintenance
4,949,153 TWh</title></path><path d="M579,652.8867255254079C768.5,652.8867255254079 768.5,352.6238907723875 958,352.6238907723875" style="stroke-width: 2.07761;"><title>Enterprise Services → OTHER
4,825,278 TWh</title></path><path d="M579,579.9278733472779C768.5,579.9278733472779 768.5,341.47433811730497 958,341.47433811730497" style="stroke-width: 2.0322;"><title>Customer Services → OTHER
4,719,830 TWh</title></path><path d="M579,581.9991583029766C768.5,581.9991583029766 768.5,440.54342602124007 958,440.54342602124007" style="stroke-width: 1.9897;"><title>Customer Services → Other Services - Not Classified
4,621,121 TWh</title></path><path d="M579,480.2048888870212C768.5,480.2048888870212 768.5,296.73667665969595 958,296.73667665969595" style="stroke-width: 1.91589;"><title>Emergency Services → Non-Holiday Overtime Pay
4,449,698 TWh</title></path><path d="M100,673.28903345709C289.5,673.28903345709 289.5,807.6741023665749 479,807.6741023665749" style="stroke-width: 1.86919;"><title>Special Projects Fund → Community Services
4,341,230 TWh</title></path><path d="M100,361.1065551105303C289.5,361.1065551105303 289.5,548.4589596771551 479,548.4589596771551" style="stroke-width: 1.76534;"><title>Liquor Commission Fund → Budget and Fiscal Services
4,100,026 TWh</title></path><path d="M579,280.53093707299985C768.5,280.53093707299985 768.5,436.5702375071157 958,436.5702375071157" style="stroke-width: 1.44724;"><title>Police → Other Services - Not Classified
3,361,250 TWh</title></path><path d="M100,349.50427537594715C289.5,349.50427537594715 289.5,805.6414037488374 479,805.6414037488374" style="stroke-width: 1.39532;"><title>General Fund → Community Services
3,240,648 TWh</title></path><path d="M100,715.4812216619626C289.5,715.4812216619626 289.5,829.7992366505495 479,829.7992366505495" style="stroke-width: 1.37997;"><title>Housing &amp; Comm Dev Rehab Fund → Community Services
3,205,000 TWh</title></path><path d="M100,372.69011163919646C289.5,372.69011163919646 289.5,424.8886081570085 479,424.8886081570085" style="stroke-width: 1.29267;"><title>Hanauma Bay Nature Preserve Fund → Parks and Recreation
3,002,262 TWh</title></path><path d="M579,511.7597973355763C768.5,511.7597973355763 768.5,334.5030069669215 958,334.5030069669215" style="stroke-width: 1.24683;"><title>Prosecuting Attorney → OTHER
2,895,783 TWh</title></path><path d="M100,427.27788712736043C289.5,427.27788712736043 289.5,582.3927690898722 479,582.3927690898722" style="stroke-width: 1.16564;"><title>Highway Beautification Fund → Customer Services
2,707,226 TWh</title></path><path d="M100,249.7214221886222C289.5,249.7214221886222 289.5,387.2800203752442 479,387.2800203752442" style="stroke-width: 1.1643;"><title>General Fund → Managing Director
2,704,115 TWh</title></path><path d="M579,654.5048326875612C768.5,654.5048326875612 768.5,398.44797373442054 958,398.44797373442054" style="stroke-width: 1.15861;"><title>Enterprise Services → Electricity
2,690,891 TWh</title></path><path d="M579,618.4963181997978C768.5,618.4963181997978 768.5,298.55350771419944 958,298.55350771419944" style="stroke-width: 1.06691;"><title>Facility Maintenance → Non-Holiday Overtime Pay
2,477,911 TWh</title></path><path d="M579,549.2174684601042C768.5,549.2174684601042 768.5,339.64909658234217 958,339.64909658234217" style="stroke-width: 1.06092;"><title>Budget and Fiscal Services → OTHER
2,464,016 TWh</title></path><path d="M579,425.2558871885621C768.5,425.2558871885621 768.5,437.96728123878444 958,437.96728123878444" style="stroke-width: 1.0318;"><title>Parks and Recreation → Other Services - Not Classified
2,396,369 TWh</title></path><path d="M100,395.0122271851982C289.5,395.0122271851982 289.5,442.55252053271045 479,442.55252053271045" style="stroke-width: 1;"><title>Highway Fund → Planning and Permitting
2,300,647 TWh</title></path><path d="M100,496.2645694768049C289.5,496.2645694768049 289.5,633.5999396108824 479,633.5999396108824" style="stroke-width: 1;"><title>Sewer Fund → Facility Maintenance
2,271,762 TWh</title></path><path d="M100,661.4090741762948C289.5,661.4090741762948 289.5,794.514250821667 479,794.514250821667" style="stroke-width: 1;"><title>Glass Incentive Account - SWSF → Environmental Services
1,995,020 TWh</title></path><path d="M100,245.30175851741356C289.5,245.30175851741356 289.5,342.8603567040356 479,342.8603567040356" style="stroke-width: 1;"><title>General Fund → Royal Hawaiian Band
1,976,398 TWh</title></path><path d="M579,342.83028891885016C768.5,342.83028891885016 768.5,100.63358016409857 958,100.63358016409857" style="stroke-width: 1;"><title>Royal Hawaiian Band → Regular Pay
1,836,732 TWh</title></path><path d="M579,387.09044021895147C768.5,387.09044021895147 768.5,104.29775870910301 958,104.29775870910301" style="stroke-width: 1;"><title>Managing Director → Regular Pay
1,823,508 TWh</title></path><path d="M579,861.4427501003611C768.5,861.4427501003611 768.5,504.4454294323551 958,504.4454294323551" style="stroke-width: 1;"><title>Transportation Services → Other Services - Not Classified
1,786,501 TWh</title></path><path d="M579,563.052293623506C768.5,563.052293623506 768.5,421.36388121367327 958,421.36388121367327" style="stroke-width: 1;"><title>Corporation Counsel → Consultant Services
1,702,472 TWh</title></path><path d="M579,264.1231611627375C768.5,264.1231611627375 768.5,271.2984876836121 958,271.2984876836121" style="stroke-width: 1;"><title>Police → Personal Svcs-Contract Positions
1,612,188 TWh</title></path><path d="M579,814.9534917177288C768.5,814.9534917177288 768.5,503.7156424821551 958,503.7156424821551" style="stroke-width: 1;"><title>Community Services → Other Services - Not Classified
1,603,387 TWh</title></path><path d="M579,688.2116128591476C768.5,688.2116128591476 768.5,260.60912021036825 958,260.60912021036825" style="stroke-width: 1;"><title>Environmental Services → Holiday Overtime Pay
1,583,950 TWh</title></path><path d="M579,331.79157143914136C768.5,331.79157143914136 768.5,386.66826281156835 958,386.66826281156835" style="stroke-width: 1;"><title>Fire → Electricity
1,543,812 TWh</title></path><path d="M100,248.80943952143207C289.5,248.80943952143207 289.5,376.36803770805415 479,376.36803770805415" style="stroke-width: 1;"><title>General Fund → Medical Examiner
1,532,079 TWh</title></path><path d="M579,794.6249323742247C768.5,794.6249323742247 768.5,696.4293842782342 958,696.4293842782342" style="stroke-width: 1;"><title>Environmental Services → Diesel
1,480,900 TWh</title></path><path d="M579,617.4034349611482C768.5,617.4034349611482 768.5,244.8458356230763 958,244.8458356230763" style="stroke-width: 1;"><title>Facility Maintenance → Unleaded Gas
1,376,881 TWh</title></path><path d="M100,495.12842028277413C289.5,495.12842028277413 289.5,459.56271595205266 479,459.56271595205266" style="stroke-width: 1;"><title>Sewer Fund → Design and Construction
1,324,628 TWh</title></path><path d="M579,376.2884295299061C768.5,376.2884295299061 768.5,103.65496437635366 958,103.65496437635366" style="stroke-width: 1;"><title>Medical Examiner → Regular Pay
1,162,296 TWh</title></path><path d="M100,746.5877859516966C289.5,746.5877859516966 289.5,512.4709329845483 479,512.4709329845483" style="stroke-width: 1;"><title>Federal Grants Fund → Prosecuting Attorney
1,074,531 TWh</title></path><path d="M579,860.7332101326845C768.5,860.7332101326845 768.5,410.3887393193675 958,410.3887393193675" style="stroke-width: 1;"><title>Transportation Services → Electricity
1,039,339 TWh</title></path><path d="M100,300.3703561740377C289.5,300.3703561740377 289.5,494.6772657994022 479,494.6772657994022" style="stroke-width: 1;"><title>General Fund → Neighborhood Commission
1,030,568 TWh</title></path><path d="M579,635.7801806218936C768.5,635.7801806218936 768.5,441.774704042003 958,441.774704042003" style="stroke-width: 1;"><title>Facility Maintenance → Other Services - Not Classified
1,015,212 TWh</title></path><path d="M100,334.20487450492965C289.5,334.20487450492965 289.5,593.2100339065299 479,593.2100339065299" style="stroke-width: 1;"><title>General Fund → Emergency Management
1,003,442 TWh</title></path><path d="M100,494.62729024263905C289.5,494.62729024263905 289.5,443.26377135835435 479,443.26377135835435" style="stroke-width: 1;"><title>Sewer Fund → Planning and Permitting
1,003,140 TWh</title></path><path d="M100,426.4811498076255C289.5,426.4811498076255 289.5,425.74886185918416 479,425.74886185918416" style="stroke-width: 1;"><title>Highway Beautification Fund → Parks and Recreation
993,649 TWh</title></path><path d="M579,651.5245618109799C768.5,651.5245618109799 768.5,275.2634568890243 958,275.2634568890243" style="stroke-width: 1;"><title>Enterprise Services → Personal Svcs-Contract Positions
936,852 TWh</title></path><path d="M579,479.04548606111854C768.5,479.04548606111854 768.5,274.1497987927115 958,274.1497987927115" style="stroke-width: 1;"><title>Emergency Services → Personal Svcs-Contract Positions
935,772 TWh</title></path><path d="M100,650.7793565938478C289.5,650.7793565938478 289.5,806.5392844857024 479,806.5392844857024" style="stroke-width: 1;"><title>Community Development Fund → Community Services
930,042 TWh</title></path><path d="M100,373.51613160519554C289.5,373.51613160519554 289.5,484.0018189877772 479,484.0018189877772" style="stroke-width: 1;"><title>Hanauma Bay Nature Preserve Fund → Emergency Services
834,632 TWh</title></path><path d="M579,459.66921196282084C768.5,459.66921196282084 768.5,438.8508303378307 958,438.8508303378307" style="stroke-width: 1;"><title>Design and Construction → Other Services - Not Classified
829,750 TWh</title></path><path d="M579,387.6878949856562C768.5,387.6878949856562 768.5,327.368850447663 958,327.368850447663" style="stroke-width: 1;"><title>Managing Director → OTHER
795,524 TWh</title></path><path d="M579,593.1566603908658C768.5,593.1566603908658 768.5,169.50762746106977 958,169.50762746106977" style="stroke-width: 1;"><title>Emergency Management → Regular Pay
755,520 TWh</title></path><path d="M579,512.5427367052869C768.5,512.5427367052869 768.5,439.2143903469373 958,439.2143903469373" style="stroke-width: 1;"><title>Prosecuting Attorney → Other Services - Not Classified
741,000 TWh</title></path><path d="M579,415.7960553210419C768.5,415.7960553210419 768.5,295.46193957425294 958,295.46193957425294" style="stroke-width: 1;"><title>Parks and Recreation → Non-Holiday Overtime Pay
736,500 TWh</title></path><path d="M100,650.4325195916679C289.5,650.4325195916679 289.5,549.6392559819292 479,549.6392559819292" style="stroke-width: 1;"><title>Community Development Fund → Budget and Fiscal Services
681,029 TWh</title></path><path d="M579,655.2298239825353C768.5,655.2298239825353 768.5,442.13894929848726 958,442.13894929848726" style="stroke-width: 1;"><title>Enterprise Services → Other Services - Not Classified
676,721 TWh</title></path><path d="M579,562.5464404786843C768.5,562.5464404786843 768.5,340.3188975842032 958,340.3188975842032" style="stroke-width: 1;"><title>Corporation Counsel → OTHER
647,235 TWh</title></path><path d="M579,494.59416636874926C768.5,494.59416636874926 768.5,144.06543731547396 958,144.06543731547396" style="stroke-width: 1;"><title>Neighborhood Commission → Regular Pay
644,568 TWh</title></path><path d="M100,671.988436087168C289.5,671.988436087168 289.5,484.3184514997498 479,484.3184514997498" style="stroke-width: 1;"><title>Special Projects Fund → Emergency Services
636,138 TWh</title></path><path d="M579,478.71576926392106C768.5,478.71576926392106 768.5,259.987252510149 958,259.987252510149" style="stroke-width: 1;"><title>Emergency Services → Holiday Overtime Pay
595,775 TWh</title></path><path d="M579,548.4056765805607C768.5,548.4056765805607 768.5,274.54320699783443 958,274.54320699783443" style="stroke-width: 1;"><title>Budget and Fiscal Services → Personal Svcs-Contract Positions
568,632 TWh</title></path><path d="M579,484.1474623653054C768.5,484.1474623653054 768.5,695.952831648207 958,695.952831648207" style="stroke-width: 1;"><title>Emergency Services → Diesel
557,089 TWh</title></path><path d="M100,248.36263433474372C289.5,248.36263433474372 289.5,365.9212325213657 479,365.9212325213657" style="stroke-width: 1;"><title>General Fund → Mayor
543,348 TWh</title></path><path d="M579,355.64138291748253C768.5,355.64138291748253 768.5,326.96342899272327 958,326.96342899272327" style="stroke-width: 1;"><title>Human Resources → OTHER
542,504 TWh</title></path><path d="M579,636.1499360595373C768.5,636.1499360595373 768.5,548.9970881530994 958,548.9970881530994" style="stroke-width: 1;"><title>Facility Maintenance → Solid Waste Disposal (including management svcs)
535,316 TWh</title></path><path d="M579,459.35292541143133C768.5,459.35292541143133 768.5,390.0326382015755 958,390.0326382015755" style="stroke-width: 1;"><title>Design and Construction → Electricity
529,413 TWh</title></path><path d="M579,332.3223397738811C768.5,332.3223397738811 768.5,695.7167590827321 958,695.7167590827321" style="stroke-width: 1;"><title>Fire → Diesel
522,711 TWh</title></path><path d="M579,426.0429354591364C768.5,426.0429354591364 768.5,548.7720273386034 958,548.7720273386034" style="stroke-width: 1;"><title>Parks and Recreation → Solid Waste Disposal (including management svcs)
505,500 TWh</title></path><path d="M579,578.7774172730309C768.5,578.7774172730309 768.5,274.7663457612505 958,274.7663457612505" style="stroke-width: 1;"><title>Customer Services → Personal Svcs-Contract Positions
467,856 TWh</title></path><path d="M100,672.2238442877648C289.5,672.2238442877648 289.5,512.1411460049301 479,512.1411460049301" style="stroke-width: 1;"><title>Special Projects Fund → Prosecuting Attorney
457,342 TWh</title></path><path d="M579,617.8655145120979C768.5,617.8655145120979 768.5,274.96441777516526 958,274.96441777516526" style="stroke-width: 1;"><title>Facility Maintenance → Personal Svcs-Contract Positions
452,196 TWh</title></path><path d="M100,746.9350313466742C289.5,746.9350313466742 289.5,549.9482924309194 479,549.9482924309194" style="stroke-width: 1;"><title>Federal Grants Fund → Budget and Fiscal Services
442,989 TWh</title></path><path d="M579,443.3852213915372C768.5,443.3852213915372 768.5,438.57768939834654 958,438.57768939834654" style="stroke-width: 1;"><title>Planning and Permitting → Other Services - Not Classified
439,000 TWh</title></path><path d="M579,365.8985399182925C768.5,365.8985399182925 768.5,103.3104599708865 958,103.3104599708865" style="stroke-width: 1;"><title>Mayor → Regular Pay
437,940 TWh</title></path><path d="M579,484.3613979744184C768.5,484.3613979744184 768.5,717.5109740854856 958,717.5109740854856" style="stroke-width: 1;"><title>Emergency Services → Public Liability Insurance
436,650 TWh</title></path><path d="M100,495.68757633027224C289.5,495.68757633027224 289.5,563.3847083535142 479,563.3847083535142" style="stroke-width: 1;"><title>Sewer Fund → Corporation Counsel
408,393 TWh</title></path><path d="M579,549.8353762356411C768.5,549.8353762356411 768.5,420.90992129517576 958,420.90992129517576" style="stroke-width: 1;"><title>Budget and Fiscal Services → Consultant Services
406,189 TWh</title></path><path d="M100,871.06362867824C289.5,871.06362867824 289.5,947.8042052010239 479,947.8042052010239" style="stroke-width: 1;"><title>Bikeway Fund → Transportation Services
403,860 TWh</title></path><path d="M579,425.8529477711799C768.5,425.8529477711799 768.5,534.930664445901 958,534.930664445901" style="stroke-width: 1;"><title>Parks and Recreation → Chemical Supplies
377,000 TWh</title></path><path d="M579,548.6075500705026C768.5,548.6075500705026 768.5,297.89189523551016 958,297.89189523551016" style="stroke-width: 1;"><title>Budget and Fiscal Services → Non-Holiday Overtime Pay
369,078 TWh</title></path><path d="M579,494.8106485663731C768.5,494.8106485663731 768.5,333.8091949658387 958,333.8091949658387" style="stroke-width: 1;"><title>Neighborhood Commission → OTHER
327,000 TWh</title></path><path d="M100,494.34133347645337C289.5,494.34133347645337 289.5,426.0327753696799 479,426.0327753696799" style="stroke-width: 1;"><title>Sewer Fund → Parks and Recreation
325,140 TWh</title></path><path d="M579,443.2218212157196C768.5,443.2218212157196 768.5,420.6816800975475 958,420.6816800975475" style="stroke-width: 1;"><title>Planning and Permitting → Consultant Services
320,000 TWh</title></path><path d="M579,413.43742502058825C768.5,413.43742502058825 768.5,259.78796242219636 958,259.78796242219636" style="stroke-width: 1;"><title>Parks and Recreation → Holiday Overtime Pay
309,443 TWh</title></path><path d="M579,593.4010859561059C768.5,593.4010859561059 768.5,342.5568429690299 958,342.5568429690299" style="stroke-width: 1;"><title>Emergency Management → OTHER
308,446 TWh</title></path><path d="M579,651.7870866905565C768.5,651.7870866905565 768.5,299.14779716761683 958,299.14779716761683" style="stroke-width: 1;"><title>Enterprise Services → Non-Holiday Overtime Pay
282,586 TWh</title></path><path d="M579,549.9832413388799C768.5,549.9832413388799 768.5,439.4343347337937 958,439.4343347337937" style="stroke-width: 1;"><title>Budget and Fiscal Services → Other Services - Not Classified
280,650 TWh</title></path><path d="M579,852.3205507890167C768.5,852.3205507890167 768.5,303.66612763458187 958,303.66612763458187" style="stroke-width: 1;"><title>Transportation Services → Non-Holiday Overtime Pay
236,250 TWh</title></path><path d="M579,861.0075542916452C768.5,861.0075542916452 768.5,425.79602422347426 958,425.79602422347426" style="stroke-width: 1;"><title>Transportation Services → Consultant Services
235,000 TWh</title></path><path d="M100,736.259962788157C289.5,736.259962788157 289.5,830.577977776744 479,830.577977776744" style="stroke-width: 1;"><title>Rental Assistance Fund → Community Services
233,000 TWh</title></path><path d="M100,495.4614457720692C289.5,495.4614457720692 289.5,530.4225984519524 479,530.4225984519524" style="stroke-width: 1;"><title>Sewer Fund → Information Technology
222,288 TWh</title></path><path d="M579,461.29564779770396C768.5,461.29564779770396 768.5,295.7312674124011 958,295.7312674124011" style="stroke-width: 1;"><title>Design and Construction → Non-Holiday Overtime Pay
220,466 TWh</title></path><path d="M579,526.4198769168544C768.5,526.4198769168544 768.5,297.76596364572663 958,297.76596364572663" style="stroke-width: 1;"><title>Information Technology → Non-Holiday Overtime Pay
215,879 TWh</title></path><path d="M100,495.5544783833706C289.5,495.5544783833706 289.5,549.4055526113617 479,549.4055526113617" style="stroke-width: 1;"><title>Sewer Fund → Budget and Fiscal Services
209,852 TWh</title></path><path d="M579,321.65263616976404C768.5,321.65263616976404 768.5,231.63148828962363 958,231.63148828962363" style="stroke-width: 1;"><title>Fire → Auto Allowance HPD/HFD/CCL
207,560 TWh</title></path><path d="M100,467.1461081328555C289.5,467.1461081328555 289.5,630.9368680877269 479,630.9368680877269" style="stroke-width: 1;"><title>Housing Development Special Fund → Facility Maintenance
200,000 TWh</title></path><path d="M100,747.0695148581759C289.5,747.0695148581759 289.5,593.478890273815 479,593.478890273815" style="stroke-width: 1;"><title>Federal Grants Fund → Emergency Management
181,692 TWh</title></path><path d="M579,376.61787076422473C768.5,376.61787076422473 768.5,327.1600032793348 958,327.1600032793348" style="stroke-width: 1;"><title>Medical Examiner → OTHER
174,579 TWh</title></path><path d="M579,651.2168883218225C768.5,651.2168883218225 768.5,245.1785368954218 958,245.1785368954218" style="stroke-width: 1;"><title>Enterprise Services → Unleaded Gas
168,529 TWh</title></path><path d="M579,651.2880214344614C768.5,651.2880214344614 768.5,260.23327031214853 958,260.23327031214853" style="stroke-width: 1;"><title>Enterprise Services → Holiday Overtime Pay
161,887 TWh</title></path><path d="M579,511.08407000955197C768.5,511.08407000955197 768.5,274.3860224872029 958,274.3860224872029" style="stroke-width: 1;"><title>Prosecuting Attorney → Personal Svcs-Contract Positions
161,496 TWh</title></path><path d="M579,617.734009447806C768.5,617.734009447806 768.5,260.16426398519724 958,260.16426398519724" style="stroke-width: 1;"><title>Facility Maintenance → Holiday Overtime Pay
158,650 TWh</title></path><path d="M100,684.2571556023406C289.5,684.2571556023406 289.5,549.8193972484872 479,549.8193972484872" style="stroke-width: 1;"><title>Housing &amp; Comm Dev Sec 8 Fund → Budget and Fiscal Services
155,734 TWh</title></path><path d="M100,427.8938713448327C289.5,427.8938713448327 289.5,630.8606482565712 479,630.8606482565712" style="stroke-width: 1;"><title>Highway Beautification Fund → Facility Maintenance
154,044 TWh</title></path><path d="M579,332.15713229308864C768.5,332.15713229308864 768.5,437.3268298363558 958,437.3268298363558" style="stroke-width: 1;"><title>Fire → Other Services - Not Classified
153,150 TWh</title></path><path d="M579,321.73009797142595C768.5,321.73009797142595 768.5,244.47628944099375 958,244.47628944099375" style="stroke-width: 1;"><title>Fire → Unleaded Gas
152,253 TWh</title></path><path d="M579,443.4857867724721C768.5,443.4857867724721 768.5,295.6521502959145 958,295.6521502959145" style="stroke-width: 1;"><title>Planning and Permitting → Non-Holiday Overtime Pay
147,036 TWh</title></path><path d="M579,580.9741410345836C768.5,580.9741410345836 768.5,390.2359971476611 958,390.2359971476611" style="stroke-width: 1;"><title>Customer Services → Electricity
140,123 TWh</title></path><path d="M579,483.99103823599273C768.5,483.99103823599273 768.5,390.17479420170173 958,390.17479420170173" style="stroke-width: 1;"><title>Emergency Services → Electricity
130,907 TWh</title></path><path d="M100,362.01649861241685C289.5,362.01649861241685 289.5,563.2695125212638 479,563.2695125212638" style="stroke-width: 1;"><title>Liquor Commission Fund → Corporation Counsel
126,696 TWh</title></path><path d="M579,563.4457181901748C768.5,563.4457181901748 768.5,439.5216644852039 958,439.5216644852039" style="stroke-width: 1;"><title>Corporation Counsel → Other Services - Not Classified
125,000 TWh</title></path><path d="M579,530.4855318466775C768.5,530.4855318466775 768.5,420.7983637540602 958,420.7983637540602" style="stroke-width: 1;"><title>Information Technology → Consultant Services
112,000 TWh</title></path><path d="M100,746.3332905007859C289.5,746.3332905007859 289.5,426.1388563138618 479,426.1388563138618" style="stroke-width: 1;"><title>Federal Grants Fund → Parks and Recreation
107,610 TWh</title></path><path d="M579,355.78121041128253C768.5,355.78121041128253 768.5,437.3827712535971 958,437.3827712535971" style="stroke-width: 1;"><title>Human Resources → Other Services - Not Classified
106,700 TWh</title></path><path d="M579,366.0146522123986C768.5,366.0146522123986 768.5,327.1013202267324 958,327.1013202267324" style="stroke-width: 1;"><title>Mayor → OTHER
98,006 TWh</title></path><path d="M100,555.4748893480095C289.5,555.4748893480095 289.5,549.4716859800175 479,549.4716859800175" style="stroke-width: 1;"><title>Refuse Genl Operating Acct -SWSF → Budget and Fiscal Services
97,340 TWh</title></path><path d="M579,376.6755406926804C768.5,376.6755406926804 768.5,437.42828304644104 958,437.42828304644104" style="stroke-width: 1;"><title>Medical Examiner → Other Services - Not Classified
93,300 TWh</title></path><path d="M100,726.1905035047238C289.5,726.1905035047238 289.5,830.5085184933106 479,830.5085184933106" style="stroke-width: 1;"><title>Leasehold Conversion Fund → Community Services
89,641 TWh</title></path><path d="M579,636.0167151857577C768.5,636.0167151857577 768.5,535.0298455539368 958,535.0298455539368" style="stroke-width: 1;"><title>Facility Maintenance → Chemical Supplies
83,500 TWh</title></path><path d="M579,355.490424836212C768.5,355.490424836212 768.5,271.7143094843935 958,271.7143094843935" style="stroke-width: 1;"><title>Human Resources → Personal Svcs-Contract Positions
80,832 TWh</title></path><path d="M579,578.8949553897514C768.5,578.8949553897514 768.5,297.9881680787566 958,297.9881680787566" style="stroke-width: 1;"><title>Customer Services → Non-Holiday Overtime Pay
78,113 TWh</title></path><path d="M579,443.43778458011064C768.5,443.43778458011064 768.5,273.9319947544032 958,273.9319947544032" style="stroke-width: 1;"><title>Planning and Permitting → Personal Svcs-Contract Positions
75,936 TWh</title></path><path d="M579,593.4837378123643C768.5,593.4837378123643 768.5,390.2824118395003 958,390.2824118395003" style="stroke-width: 1;"><title>Emergency Management → Electricity
75,475 TWh</title></path><path d="M579,478.572243845457C768.5,478.572243845457 768.5,244.52678397042433 958,244.52678397042433" style="stroke-width: 1;"><title>Emergency Services → Unleaded Gas
70,906 TWh</title></path><path d="M579,387.49775487698236C768.5,387.49775487698236 768.5,271.7674474799095 958,271.7674474799095" style="stroke-width: 1;"><title>Managing Director → Personal Svcs-Contract Positions
68,484 TWh</title></path><path d="M579,323.9312681983692C768.5,323.9312681983692 768.5,271.6599882907663 958,271.6599882907663" style="stroke-width: 1;"><title>Fire → Personal Svcs-Contract Positions
66,996 TWh</title></path><path d="M579,809.3707709985036C768.5,809.3707709985036 768.5,275.49475920272624 958,275.49475920272624" style="stroke-width: 1;"><title>Community Services → Personal Svcs-Contract Positions
64,404 TWh</title></path><path d="M579,655.4039928542613C768.5,655.4039928542613 768.5,549.1260033568971 958,549.1260033568971" style="stroke-width: 1;"><title>Enterprise Services → Solid Waste Disposal (including management svcs)
63,500 TWh</title></path><path d="M579,655.4307930664975C768.5,655.4307930664975 768.5,696.0976134611719 958,696.0976134611719" style="stroke-width: 1;"><title>Enterprise Services → Diesel
60,188 TWh</title></path><path d="M579,343.27348143314015C768.5,343.27348143314015 768.5,326.8342756853757 958,326.8342756853757" style="stroke-width: 1;"><title>Royal Hawaiian Band → OTHER
57,418 TWh</title></path><path d="M579,459.4787398869914C768.5,459.4787398869914 768.5,420.7624114097103 958,420.7624114097103" style="stroke-width: 1;"><title>Design and Construction → Consultant Services
55,000 TWh</title></path><path d="M579,343.2369551429817C768.5,343.2369551429817 768.5,271.68565955633306 958,271.68565955633306" style="stroke-width: 1;"><title>Royal Hawaiian Band → Personal Svcs-Contract Positions
52,248 TWh</title></path><path d="M100,360.2129102917936C289.5,360.2129102917936 289.5,530.363766638452 479,530.363766638452" style="stroke-width: 1;"><title>Liquor Commission Fund → Information Technology
50,988 TWh</title></path><path d="M579,376.557347037705C768.5,376.557347037705 768.5,271.7422076424749 958,271.7422076424749" style="stroke-width: 1;"><title>Medical Examiner → Personal Svcs-Contract Positions
48,756 TWh</title></path><path d="M100,746.82938893498C289.5,746.82938893498 289.5,530.4993694088657 479,530.4993694088657" style="stroke-width: 1;"><title>Federal Grants Fund → Information Technology
47,724 TWh</title></path><path d="M100,437.9364081350026C289.5,437.9364081350026 289.5,549.3510012796739 479,549.3510012796739" style="stroke-width: 1;"><title>Special Events Fund → Budget and Fiscal Services
43,541 TWh</title></path><path d="M100,555.4446127378299C289.5,555.4446127378299 289.5,530.4797743047776 479,530.4797743047776" style="stroke-width: 1;"><title>Refuse Genl Operating Acct -SWSF → Information Technology
43,296 TWh</title></path><path d="M579,332.19940686795655C768.5,332.19940686795655 768.5,534.8401986597594 958,534.8401986597594" style="stroke-width: 1;"><title>Fire → Chemical Supplies
43,217 TWh</title></path><path d="M100,672.3315120866187C289.5,672.3315120866187 289.5,582.9847997888171 479,582.9847997888171" style="stroke-width: 1;"><title>Special Projects Fund → Customer Services
42,779 TWh</title></path><path d="M579,494.8900881775414C768.5,494.8900881775414 768.5,439.04582336714134 958,439.04582336714134" style="stroke-width: 1;"><title>Neighborhood Commission → Other Services - Not Classified
42,000 TWh</title></path><path d="M579,593.5089205996716C768.5,593.5089205996716 768.5,441.5472113851012 958,441.5472113851012" style="stroke-width: 1;"><title>Emergency Management → Other Services - Not Classified
41,500 TWh</title></path><path d="M579,511.12761023611114C768.5,511.12761023611114 768.5,297.71071565663584 958,297.71071565663584" style="stroke-width: 1;"><title>Prosecuting Attorney → Non-Holiday Overtime Pay
40,750 TWh</title></path><path d="M579,355.5162086950488C768.5,355.5162086950488 768.5,295.2776924208 958,295.2776924208" style="stroke-width: 1;"><title>Human Resources → Non-Holiday Overtime Pay
38,935 TWh</title></path><path d="M579,688.5604853668116C768.5,688.5604853668116 768.5,275.473019874987 958,275.473019874987" style="stroke-width: 1;"><title>Environmental Services → Personal Svcs-Contract Positions
36,576 TWh</title></path><path d="M579,852.2618365203069C768.5,852.2618365203069 768.5,275.5164778632496 958,275.5164778632496" style="stroke-width: 1;"><title>Transportation Services → Personal Svcs-Contract Positions
36,480 TWh</title></path><path d="M579,593.3271476994737C768.5,593.3271476994737 768.5,298.0125194411904 958,298.0125194411904" style="stroke-width: 1;"><title>Emergency Management → Non-Holiday Overtime Pay
35,000 TWh</title></path><path d="M579,655.3829165996995C768.5,655.3829165996995 768.5,535.0552274784808 958,535.0552274784808" style="stroke-width: 1;"><title>Enterprise Services → Chemical Supplies
34,400 TWh</title></path><path d="M100,672.3475799858576C289.5,672.3475799858576 289.5,593.4329166978656 479,593.4329166978656" style="stroke-width: 1;"><title>Special Projects Fund → Emergency Management
31,857 TWh</title></path><path d="M579,279.80050965439005C768.5,279.80050965439005 768.5,386.32909980499744 958,386.32909980499744" style="stroke-width: 1;"><title>Police → Electricity
31,613 TWh</title></path><path d="M579,343.25466178021577C768.5,343.25466178021577 768.5,295.2628518527894 958,295.2628518527894" style="stroke-width: 1;"><title>Royal Hawaiian Band → Non-Holiday Overtime Pay
30,000 TWh</title></path><path d="M100,671.8450275676439C289.5,671.8450275676439 289.5,426.10923115155055 479,426.10923115155055" style="stroke-width: 1;"><title>Special Projects Fund → Parks and Recreation
30,000 TWh</title></path><path d="M579,376.5740650931112C768.5,376.5740650931112 768.5,295.29302814085844 958,295.29302814085844" style="stroke-width: 1;"><title>Medical Examiner → Non-Holiday Overtime Pay
28,900 TWh</title></path><path d="M100,870.9704821819676C289.5,870.9704821819676 289.5,636.2771787258304 479,636.2771787258304" style="stroke-width: 1;"><title>Bikeway Fund → Facility Maintenance
28,809 TWh</title></path><path d="M579,636.2775100471355C768.5,636.2775100471355 768.5,696.0787851969075 958,696.0787851969075" style="stroke-width: 1;"><title>Facility Maintenance → Diesel
27,270 TWh</title></path><path d="M579,426.15628222141305C768.5,426.15628222141305 768.5,576.6276218986833 958,576.6276218986833" style="stroke-width: 1;"><title>Parks and Recreation → Recycling Services
21,000 TWh</title></path><path d="M579,376.5427516776C768.5,376.5427516776 768.5,259.71724545256126 958,259.71724545256126" style="stroke-width: 1;"><title>Medical Examiner → Holiday Overtime Pay
19,040 TWh</title></path><path d="M579,526.3696342691177C768.5,526.3696342691177 768.5,260.1193235547599 958,260.1193235547599" style="stroke-width: 1;"><title>Information Technology → Holiday Overtime Pay
17,500 TWh</title></path><path d="M579,548.2728591480584C768.5,548.2728591480584 768.5,244.5457323628812 958,244.5457323628812" style="stroke-width: 1;"><title>Budget and Fiscal Services → Unleaded Gas
17,110 TWh</title></path><path d="M579,484.02288017249424C768.5,484.02288017249424 768.5,439.0331216406944 958,439.0331216406944" style="stroke-width: 1;"><title>Emergency Services → Other Services - Not Classified
17,000 TWh</title></path><path d="M579,494.73659104268245C768.5,494.73659104268245 768.5,297.6982830345628 958,297.6982830345628" style="stroke-width: 1;"><title>Neighborhood Commission → Non-Holiday Overtime Pay
17,000 TWh</title></path><path d="M579,548.279901071314C768.5,548.279901071314 768.5,260.12644943858015 958,260.12644943858015" style="stroke-width: 1;"><title>Budget and Fiscal Services → Holiday Overtime Pay
15,600 TWh</title></path><path d="M579,636.2684100136286C768.5,636.2684100136286 768.5,576.635372104651 958,576.635372104651" style="stroke-width: 1;"><title>Facility Maintenance → Recycling Services
15,000 TWh</title></path><path d="M579,461.2459793110594C768.5,461.2459793110594 768.5,259.8567861887404 958,259.8567861887404" style="stroke-width: 1;"><title>Design and Construction → Holiday Overtime Pay
10,246 TWh</title></path><path d="M579,387.5145650737261C768.5,387.5145650737261 768.5,295.3013165555738 958,295.3013165555738" style="stroke-width: 1;"><title>Managing Director → Non-Holiday Overtime Pay
9,600 TWh</title></path><path d="M579,281.2573251273161C768.5,281.2573251273161 768.5,695.6023227706665 958,695.6023227706665" style="stroke-width: 1;"><title>Police → Diesel
8,850 TWh</title></path><path d="M579,426.16260789646714C768.5,426.16260789646714 768.5,695.8310948574035 958,695.8310948574035" style="stroke-width: 1;"><title>Parks and Recreation → Diesel
8,383 TWh</title></path><path d="M579,387.86066494520514C768.5,387.86066494520514 768.5,437.4498757661174 958,437.4498757661174" style="stroke-width: 1;"><title>Managing Director → Other Services - Not Classified
6,999 TWh</title></path><path d="M579,530.4599927651791C768.5,530.4599927651791 768.5,390.20440364831757 958,390.20440364831757" style="stroke-width: 1;"><title>Information Technology → Electricity
6,630 TWh</title></path><path d="M579,366.0369788335233C768.5,366.0369788335233 768.5,437.40696954946304 958,437.40696954946304" style="stroke-width: 1;"><title>Mayor → Other Services - Not Classified
5,702 TWh</title></path><path d="M579,413.3695810092486C768.5,413.3695810092486 768.5,244.5102930391097 958,244.5102930391097" style="stroke-width: 1;"><title>Parks and Recreation → Unleaded Gas
5,695 TWh</title></path><path d="M100,870.963085256222C289.5,870.963085256222 289.5,426.16321779462004 479,426.16321779462004" style="stroke-width: 1;"><title>Bikeway Fund → Parks and Recreation
5,550 TWh</title></path><path d="M579,376.69674783960977C768.5,376.69674783960977 768.5,548.6620803333446 958,548.6620803333446" style="stroke-width: 1;"><title>Medical Examiner → Solid Waste Disposal (including management svcs)
5,208 TWh</title></path><path d="M100,373.6968905201126C289.5,373.6968905201126 289.5,646.2854044930475 479,646.2854044930475" style="stroke-width: 1;"><title>Hanauma Bay Nature Preserve Fund → Enterprise Services
5,000 TWh</title></path><path d="M579,852.2533371277625C768.5,852.2533371277625 768.5,260.9507643592664 958,260.9507643592664" style="stroke-width: 1;"><title>Transportation Services → Holiday Overtime Pay
3,000 TWh</title></path><path d="M579,809.3851743257276C768.5,809.3851743257276 768.5,303.61472869917156 958,303.61472869917156" style="stroke-width: 1;"><title>Community Services → Non-Holiday Overtime Pay
2,500 TWh</title></path><path d="M579,809.3563676712798C768.5,809.3563676712798 768.5,245.21535661698948 958,245.21535661698948" style="stroke-width: 1;"><title>Community Services → Unleaded Gas
2,500 TWh</title></path><path d="M579,484.02703514402685C768.5,484.02703514402685 768.5,548.8813482994468 958,548.8813482994468" style="stroke-width: 1;"><title>Emergency Services → Solid Waste Disposal (including management svcs)
2,300 TWh</title></path><path d="M100,341.47130928811055C289.5,341.47130928811055 289.5,646.2838544518539 479,646.2838544518539" style="stroke-width: 1;"><title>Zoo Animal Purchase Fund → Enterprise Services
2,200 TWh</title></path><path d="M579,281.25498930135086C768.5,281.25498930135086 768.5,534.8304641857804 958,534.8304641857804" style="stroke-width: 1;"><title>Police → Chemical Supplies
2,000 TWh</title></path><path d="M579,365.9931871558372C768.5,365.9931871558372 768.5,295.2864404657859 958,295.2864404657859" style="stroke-width: 1;"><title>Mayor → Non-Holiday Overtime Pay
1,700 TWh</title></path><path d="M579,332.20948579553396C768.5,332.20948579553396 768.5,576.6227780199534 958,576.6227780199534" style="stroke-width: 1;"><title>Fire → Recycling Services
1,500 TWh</title></path><path d="M579,332.20893682261124C768.5,332.20893682261124 768.5,548.6606555871475 958,548.6606555871475" style="stroke-width: 1;"><title>Fire → Solid Waste Disposal (including management svcs)
1,050 TWh</title></path><path d="M579,593.3194620785558C768.5,593.3194620785558 768.5,260.1299585596155 958,260.1299585596155" style="stroke-width: 1;"><title>Emergency Management → Holiday Overtime Pay
700 TWh</title></path><path d="M579,332.1240451568283C768.5,332.1240451568283 768.5,420.61260832441246 958,420.61260832441246" style="stroke-width: 1;"><title>Fire → Consultant Services
541 TWh</title></path><path d="M579,655.417749469854C768.5,655.417749469854 768.5,576.6386874705371 958,576.6386874705371" style="stroke-width: 1;"><title>Enterprise Services → Recycling Services
400 TWh</title></path><path d="M579,593.5179302141089C768.5,593.5179302141089 768.5,696.0728390666623 958,696.0728390666623" style="stroke-width: 1;"><title>Emergency Management → Diesel
350 TWh</title></path><path d="M579,355.8042199116664C768.5,355.8042199116664 768.5,548.6609203858515 958,548.6609203858515" style="stroke-width: 1;"><title>Human Resources → Solid Waste Disposal (including management svcs)
180 TWh</title></path><path d="M579,355.7582073694036C768.5,355.7582073694036 768.5,420.61275708531036 958,420.61275708531036" style="stroke-width: 1;"><title>Human Resources → Consultant Services
150 TWh</title></path><path d="M579,459.84786497454974C768.5,459.84786497454974 768.5,535.0118478534118 958,535.0118478534118" style="stroke-width: 1;"><title>Design and Construction → Chemical Supplies
100 TWh</title></path><path d="M579,511.0492810572313C768.5,511.0492810572313 768.5,260.1155345651758 958,260.1155345651758" style="stroke-width: 1;"><title>Prosecuting Attorney → Holiday Overtime Pay
100 TWh</title></path><path d="M579,852.2526783602552C768.5,852.2526783602552 768.5,245.2159077427472 958,245.2159077427472" style="stroke-width: 1;"><title>Transportation Services → Unleaded Gas
60 TWh</title></path><path d="M579,550.0436606529026C768.5,550.0436606529026 768.5,680.5019074871316 958,680.5019074871316" style="stroke-width: 1;"><title>Budget and Fiscal Services → Sub Recipient Grants
0 TWh</title></path><path d="M579,814.6083089539559C768.5,814.6083089539559 768.5,425.74543260118554 958,425.74543260118554" style="stroke-width: 1;"><title>Community Services → Consultant Services
0 TWh</title></path><path d="M579,814.6083089539559C768.5,814.6083089539559 768.5,410.1649867826955 958,410.1649867826955" style="stroke-width: 1;"><title>Community Services → Electricity
0 TWh</title></path><path d="M579,809.3569058800275C768.5,809.3569058800275 768.5,260.9501185087691 958,260.9501185087691" style="stroke-width: 1;"><title>Community Services → Holiday Overtime Pay
0 TWh</title></path><path d="M579,562.4071014631437C768.5,562.4071014631437 768.5,297.9713516387913 958,297.9713516387913" style="stroke-width: 1;"><title>Corporation Counsel → Non-Holiday Overtime Pay
0 TWh</title></path><path d="M579,562.4071014631437C768.5,562.4071014631437 768.5,274.66562408449516 958,274.66562408449516" style="stroke-width: 1;"><title>Corporation Counsel → Personal Svcs-Contract Positions
0 TWh</title></path><path d="M579,581.0043072043281C768.5,581.0043072043281 768.5,421.7303953429545 958,421.7303953429545" style="stroke-width: 1;"><title>Customer Services → Consultant Services
0 TWh</title></path><path d="M579,578.6766955962755C768.5,578.6766955962755 768.5,260.1298078611661 958,260.1298078611661" style="stroke-width: 1;"><title>Customer Services → Holiday Overtime Pay
0 TWh</title></path><path d="M579,582.9940094016251C768.5,582.9940094016251 768.5,548.8818434514948 958,548.8818434514948" style="stroke-width: 1;"><title>Customer Services → Solid Waste Disposal (including management svcs)
0 TWh</title></path><path d="M579,461.2481851057912C768.5,461.2481851057912 768.5,273.9483425221909 958,273.9483425221909" style="stroke-width: 1;"><title>Design and Construction → Personal Svcs-Contract Positions
0 TWh</title></path><path d="M579,593.4999863344589C768.5,593.4999863344589 768.5,421.7303953429545 958,421.7303953429545" style="stroke-width: 1;"><title>Emergency Management → Consultant Services
0 TWh</title></path><path d="M579,593.3196127770052C768.5,593.3196127770052 768.5,274.86706743800585 958,274.86706743800585" style="stroke-width: 1;"><title>Emergency Management → Personal Svcs-Contract Positions
0 TWh</title></path><path d="M579,687.8706145607468C768.5,687.8706145607468 768.5,245.21481840824174 958,245.21481840824174" style="stroke-width: 1;"><title>Environmental Services → Unleaded Gas
0 TWh</title></path><path d="M579,635.5616222302044C768.5,635.5616222302044 768.5,421.7303953429545 958,421.7303953429545" style="stroke-width: 1;"><title>Facility Maintenance → Consultant Services
0 TWh</title></path><path d="M579,355.47302304041267C768.5,355.47302304041267 768.5,259.71314645473836 958,259.71314645473836" style="stroke-width: 1;"><title>Human Resources → Holiday Overtime Pay
0 TWh</title></path><path d="M579,530.5096435985768C768.5,530.5096435985768 768.5,439.37391541977104 958,439.37391541977104" style="stroke-width: 1;"><title>Information Technology → Other Services - Not Classified
0 TWh</title></path><path d="M579,526.3734017303519C768.5,526.3734017303519 768.5,274.4207899111737 958,274.4207899111737" style="stroke-width: 1;"><title>Information Technology → Personal Svcs-Contract Positions
0 TWh</title></path><path d="M579,387.86217171441535C768.5,387.86217171441535 768.5,680.5019074871316 958,680.5019074871316" style="stroke-width: 1;"><title>Managing Director → Sub Recipient Grants
0 TWh</title></path><path d="M579,365.99282117388873C768.5,365.99282117388873 768.5,271.73171128019277 958,271.73171128019277" style="stroke-width: 1;"><title>Mayor → Personal Svcs-Contract Positions
0 TWh</title></path><path d="M579,365.99282117388873C768.5,365.99282117388873 768.5,244.50906699958233 958,244.50906699958233" style="stroke-width: 1;"><title>Mayor → Unleaded Gas
0 TWh</title></path><path d="M579,494.73293122319774C768.5,494.73293122319774 768.5,274.35125506323214 958,274.35125506323214" style="stroke-width: 1;"><title>Neighborhood Commission → Personal Svcs-Contract Positions
0 TWh</title></path><path d="M579,443.4214368123229C768.5,443.4214368123229 768.5,244.5115190786371 958,244.5115190786371" style="stroke-width: 1;"><title>Planning and Permitting → Unleaded Gas
0 TWh</title></path><path d="M579,279.8073154116471C768.5,279.8073154116471 768.5,420.61249185603947 958,420.61249185603947" style="stroke-width: 1;"><title>Police → Consultant Services
0 TWh</title></path><path d="M579,512.3832116324531C768.5,512.3832116324531 768.5,420.7742520021609 958,420.7742520021609" style="stroke-width: 1;"><title>Prosecuting Attorney → Consultant Services
0 TWh</title></path><path d="M579,512.7022617781206C768.5,512.7022617781206 768.5,680.5019074871316 958,680.5019074871316" style="stroke-width: 1;"><title>Prosecuting Attorney → Sub Recipient Grants
0 TWh</title></path><path d="M579,343.22570701072067C768.5,343.22570701072067 768.5,244.50906699958233 958,244.50906699958233" style="stroke-width: 1;"><title>Royal Hawaiian Band → Unleaded Gas
0 TWh</title></path><path d="M579,861.8273542867882C768.5,861.8273542867882 768.5,581.3528708091081 958,581.3528708091081" style="stroke-width: 1;"><title>Transportation Services → Recycling Services
0 TWh</title></path><path d="M100,746.3564571581242C289.5,746.3564571581242 289.5,459.8478865028996 479,459.8478865028996" style="stroke-width: 1;"><title>Federal Grants Fund → Design and Construction
0 TWh</title></path><path d="M100,747.1086301476946C289.5,747.1086301476946 289.5,794.9437457080433 479,794.9437457080433" style="stroke-width: 1;"><title>Federal Grants Fund → Environmental Services
0 TWh</title></path><path d="M100,747.1086301476946C289.5,747.1086301476946 289.5,636.2709766235048 479,636.2709766235048" style="stroke-width: 1;"><title>Federal Grants Fund → Facility Maintenance
0 TWh</title></path><path d="M100,746.3101238434476C289.5,746.3101238434476 289.5,332.43487082697965 479,332.43487082697965" style="stroke-width: 1;"><title>Federal Grants Fund → Fire
0 TWh</title></path><path d="M100,746.3101238434476C289.5,746.3101238434476 289.5,387.86217171441535 479,387.86217171441535" style="stroke-width: 1;"><title>Federal Grants Fund → Managing Director
0 TWh</title></path><path d="M100,746.3101238434476C289.5,746.3101238434476 289.5,281.2592303862831 479,281.2592303862831" style="stroke-width: 1;"><title>Federal Grants Fund → Police
0 TWh</title></path><path d="M100,350.2019334167414C289.5,350.2019334167414 289.5,849.5462211840928 479,849.5462211840928" style="stroke-width: 1;"><title>General Fund → Transportation Services
0 TWh</title></path><path d="M100,672.3223024738106C289.5,672.3223024738106 289.5,549.7858702880383 479,549.7858702880383" style="stroke-width: 1;"><title>Special Projects Fund → Budget and Fiscal Services
0 TWh</title></path><path d="M100,671.8385690626709C289.5,671.8385690626709 289.5,332.43487082697965 479,332.43487082697965" style="stroke-width: 1;"><title>Special Projects Fund → Fire
0 TWh</title></path><path d="M100,672.3223024738106C289.5,672.3223024738106 289.5,530.4890952191546 479,530.4890952191546" style="stroke-width: 1;"><title>Special Projects Fund → Information Technology
0 TWh</title></path><path d="M100,671.8385690626709C289.5,671.8385690626709 289.5,387.86217171441535 479,387.86217171441535" style="stroke-width: 1;"><title>Special Projects Fund → Managing Director
0 TWh</title></path><path d="M100,671.8385690626709C289.5,671.8385690626709 289.5,366.0382063800352 479,366.0382063800352" style="stroke-width: 1;"><title>Special Projects Fund → Mayor
0 TWh</title></path><path d="M100,671.8514860726169C289.5,671.8514860726169 289.5,443.47973084764243 479,443.47973084764243" style="stroke-width: 1;"><title>Special Projects Fund → Planning and Permitting
0 TWh</title></path><path d="M100,671.8385690626709C289.5,671.8385690626709 289.5,281.2592303862831 479,281.2592303862831" style="stroke-width: 1;"><title>Special Projects Fund → Police
0 TWh</title></path><path d="M579,443.3351858465266C768.5,443.3351858465266 768.5,333.2251908968743 958,333.2251908968743" style="stroke-width: 1;"><title>Planning and Permitting → OTHER
−846,583 TWh</title></path><path d="M579,460.2910310089693C768.5,460.2910310089693 768.5,331.99085606570753 958,331.99085606570753" style="stroke-width: 1;"><title>Design and Construction → OTHER
−4,886,949 TWh</title></path></g><g><g class="node" transform="translate(479,540.5096435985768)"><rect height="9.534017054325853" width="100"/></g><g class="node" transform="translate(479,804.9437457080433)"><rect height="34.602475476049584" width="100"/></g><g class="node" transform="translate(479,560.0436606529026)"><rect height="3.4289679746597983" width="100"/></g><g class="node" transform="translate(479,573.4726286275625)"><rect height="9.521380774062628" width="100"/></g><g class="node" transform="translate(479,453.47973084764243)"><rect height="6.368155655257181" width="100"/></g><g class="node" transform="translate(479,592.9940094016251)"><rect height="0.5239961617085122" width="100"/></g><g class="node" transform="translate(479,469.8478865028996)"><rect height="14.607515011401215" width="100"/></g><g class="node" transform="translate(479,646.2833808281559)"><rect height="9.160369721585404" width="100"/></g><g class="node" transform="translate(479,665.4437505497414)"><rect height="129.49999515830186" width="100"/></g><g class="node" transform="translate(479,603.5180055633336)"><rect height="32.765375264822296" width="100"/></g><g class="node" transform="translate(479,291.2592303862831)"><rect height="41.17564044069653" width="100"/></g><g class="node" transform="translate(479,353.2858425810915)"><rect height="2.5184160816047494" width="100"/></g><g class="node" transform="translate(479,522.7022617781206)"><rect height="7.807381820456204" width="100"/></g><g class="node" transform="translate(479,386.6978690360731)"><rect height="1.16430267834225" width="100"/></g><g class="node" transform="translate(479,365.80425866269627)"><rect height="0.23394771733890937" width="100"/></g><g class="node" transform="translate(479,376.0382063800352)"><rect height="0.6596626560378964" width="100"/></g><g class="node" transform="translate(479,494.45540151430083)"><rect height="0.4437285702027525" width="100"/></g><g class="node" transform="translate(479,397.86217171441535)"><rect height="28.302240903624725" width="100"/></g><g class="node" transform="translate(479,436.1644126180401)"><rect height="7.315318229602324" width="100"/></g><g class="node" transform="translate(479,184.8911495949707)"><rect height="96.36808079131242" width="100"/></g><g class="node" transform="translate(479,504.8991300845036)"><rect height="7.803131693616955" width="100"/></g><g class="node" transform="translate(479,342.43487082697965)"><rect height="0.8509717541118875" width="100"/></g><g class="node" transform="translate(479,849.5462211840928)"><rect height="98.34492841087805" width="100"/></g><g class="node" transform="translate(0,870.961890432802)"><rect height="0.18868263938496052" width="100"/></g><g class="node" transform="translate(0,777.7420099538236)"><rect height="83.21988047897834" width="100"/></g><g class="node" transform="translate(0,650.2859052855587)"><rect height="0.6936740043598468" width="100"/></g><g class="node" transform="translate(0,746.3101238434476)"><rect height="21.431886110376" width="100"/></g><g class="node" transform="translate(0,118.15152031958287)"><rect height="232.05041309715855" width="100"/></g><g class="node" transform="translate(0,660.9795792899185)"><rect height="0.8589897727524" width="100"/></g><g class="node" transform="translate(0,452.8731965491954)"><rect height="4.229854883839867" width="100"/></g><g class="node" transform="translate(0,372.0437741706189)"><rect height="1.6541927669892076" width="100"/></g><g class="node" transform="translate(0,426.26723357402744)"><rect height="1.659800902140785" width="100"/></g><g class="node" transform="translate(0,383.6979669376081)"><rect height="32.56926663641935" width="100"/></g><g class="node" transform="translate(0,714.7912380473443)"><rect height="1.37996722923652" width="100"/></g><g class="node" transform="translate(0,684.2236286418917)"><rect height="20.56760940545268" width="100"/></g><g class="node" transform="translate(0,467.1030514330353)"><rect height="0.08611339964034445" width="100"/></g><g class="node" transform="translate(0,726.1712052765808)"><rect height="0.038596456285800586" width="100"/></g><g class="node" transform="translate(0,360.20193341674144)"><rect height="1.8418407538774892" width="100"/></g><g class="node" transform="translate(0,477.18916483267566)"><rect height="7.08217136688007" width="100"/></g><g class="node" transform="translate(0,555.4352918234528)"><rect height="28.93108443506534" width="100"/></g><g class="node" transform="translate(0,736.2098017328666)"><rect height="0.10032211058100128" width="100"/></g><g class="node" transform="translate(0,494.2713361995557)"><rect height="51.163955623896996" width="100"/></g><g class="node" transform="translate(0,594.3663762585181)"><rect height="45.919529027040525" width="100"/></g><g class="node" transform="translate(0,437.9270344761682)"><rect height="4.946162073027185" width="100"/></g><g class="node" transform="translate(0,671.8385690626709)"><rect height="2.385059579220717" width="100"/></g>


<g class="node" transform="translate(958,420.61249185603947)"><rect height="5.234123989723503" width="100"/></g><g class="node" transform="translate(958,255.21592065975716)"><rect height="5.735489550006532" width="100"/></g><g class="node" transform="translate(958,285.5243314052967)"><rect height="18.192656955947747" width="100"/></g><g class="node" transform="translate(958,435.8466158457629)"><rect height="68.98341777301941" width="100"/></g><g class="node" transform="translate(958,270.9514102097637)"><rect height="4.572921195533039" width="100"/></g><g class="node" transform="translate(958,1.4210854715202004e-13)"><rect height="217.70190609409258" width="100"/></g><g class="node" transform="translate(958,680.5019074871316)"><rect height="5.098510024567899" width="100"/></g><g class="node" transform="translate(958,241.67617253269702)"><rect height="3.5397481270601214" width="100"/></g><g class="node" transform="translate(958,651.3528708091081)"><rect height="19.149036678023396" width="100"/></g><g class="node" transform="translate(958,386.32229404774034)"><rect height="24.290197808299162" width="100"/></g><g class="node" transform="translate(958,548.6604295394735)"><rect height="7.962025555231329" width="100"/></g><g class="node" transform="translate(958,534.8300336187823)"><rect height="3.830395920691221" width="100"/></g><g class="node" transform="translate(958,695.6004175116994)"><rect height="11.816553033903764" width="100"/></g><g class="node" transform="translate(958,717.4169705456032)"><rect height="5.0749425093543294" width="100"/></g><g class="node" transform="translate(958,576.6224550947048)"><rect height="4.730415714403257" width="100"/></g><g class="node" transform="translate(958,227.7019060940927)"><rect height="3.974266438604341" width="100"/></g><g class="node" transform="translate(958,821.6491051746515)"><rect height="3.851300809587911" width="100"/></g><g class="node" transform="translate(958,787.607183833222)"><rect height="7.492505591269295" width="100"/></g><g class="node" transform="translate(958,732.4919130549575)"><rect height="45.11527077826453" width="100"/></g><g class="node" transform="translate(958,849.5486817230307)"><rect height="3.4513182769694515" width="100"/></g><g class="node" transform="translate(958,805.0996894244913)"><rect height="6.549415750160142" width="100"/></g><g class="node" transform="translate(958,835.5004059842394)"><rect height="4.048275738791238" width="100"/></g><g class="node" transform="translate(958,313.7169883612445)"><rect height="62.60530568649581" width="100"/></g><g class="node" transform="translate(958,514.8300336187823)"><rect height="0" width="100"/></g><g class="node" transform="translate(958,524.8300336187823)"><rect height="0" width="100"/></g><g class="node" transform="translate(958,566.6224550947048)"><rect height="0" width="100"/></g><g class="node" transform="translate(958,591.3528708091081)"><rect height="0" width="100"/></g><g class="node" transform="translate(958,601.3528708091081)"><rect height="0" width="100"/></g><g class="node" transform="translate(958,611.3528708091081)"><rect height="0" width="100"/></g><g class="node" transform="translate(958,621.3528708091081)"><rect height="0" width="100"/></g><g class="node" transform="translate(958,631.3528708091081)"><rect height="0" width="100"/></g><g class="node" transform="translate(958,641.3528708091081)"><rect height="0" width="100"/></g><g class="node" transform="translate(958,863.0000000000001)"><rect height="0" width="100"/></g><g class="node" transform="translate(958,873)"><rect height="0" width="100"/></g><g class="node" transform="translate(958,883)"><rect height="0" width="100"/></g><g class="node" transform="translate(958,893)"><rect height="0" width="100"/></g><g class="node" transform="translate(958,903)"><rect height="0" width="100"/></g><g class="node" transform="translate(958,913)"><rect height="0" width="100"/></g><g class="node" transform="translate(958,923)"><rect height="0" width="100"/></g><g class="node" transform="translate(958,933)"><rect height="0" width="100"/></g><g class="node" transform="translate(958,943)"><rect height="0" width="100"/></g><g class="node" transform="translate(958,953)"><rect height="0" width="100"/></g><g class="node" transform="translate(958,963)"><rect height="0" width="100"/></g><g class="node" transform="translate(958,973)"><rect height="0" width="100"/></g><g class="node" transform="translate(958,983)"><rect height="0" width="100"/></g><g class="node" transform="translate(958,993)"><rect height="0" width="100"/></g></g></g></svg>